<svg width="328" height="416" viewBox="0 0 328 416" fill="none" xmlns="http://www.w3.org/2000/svg">
<g filter="url(#filter0_d)">
<rect x="9" y="5" width="310" height="398" rx="8" fill="#202124"/>
</g>

<path d="M178.084 82H150.269V92.0015H178.084V82Z" stroke="white" stroke-width="1.5" stroke-miterlimit="10" stroke-linecap="round" stroke-linejoin="round"/>
<path d="M150.036 86.4546H148.271L142 97.0258H185.999L179.912 86.4546L178.086 86.4258" stroke="white" stroke-width="1.5" stroke-miterlimit="10" stroke-linecap="round" stroke-linejoin="round"/>
<path d="M175.089 92.0039L177.2 97.0263" stroke="white" stroke-width="1.5" stroke-miterlimit="10" stroke-linecap="round" stroke-linejoin="round"/>
<path d="M152.911 92.0039L150.8 97.0263" stroke="white" stroke-width="1.5" stroke-miterlimit="10" stroke-linecap="round" stroke-linejoin="round"/>
<path d="M167.521 92.0039L168.223 97.0263" stroke="white" stroke-width="1.5" stroke-miterlimit="10" stroke-linecap="round" stroke-linejoin="round"/>
<path d="M160.035 92.1445L159.708 96.8316" stroke="white" stroke-width="1.5" stroke-miterlimit="10" stroke-linecap="round" stroke-linejoin="round"/>
<path d="M142 101.869V97.0234H150.8V101.869" stroke="white" stroke-width="1.5" stroke-miterlimit="10" stroke-linecap="round" stroke-linejoin="round"/>
<path d="M150.8 101.867C150.8 104.301 148.83 106.273 146.399 106.273C143.967 106.273 142 104.301 142 101.867" stroke="white" stroke-width="1.5" stroke-miterlimit="10" stroke-linecap="round" stroke-linejoin="round"/>
<path d="M150.799 101.869V97.0234H159.599V101.869" stroke="white" stroke-width="1.5" stroke-miterlimit="10" stroke-linecap="round" stroke-linejoin="round"/>
<path d="M159.598 101.867C159.598 104.301 157.628 106.273 155.197 106.273C152.765 106.273 150.795 104.301 150.795 101.867" stroke="white" stroke-width="1.5" stroke-miterlimit="10" stroke-linecap="round" stroke-linejoin="round"/>
<path d="M159.603 101.869V97.0234H168.402V101.869" stroke="white" stroke-width="1.5" stroke-miterlimit="10" stroke-linecap="round" stroke-linejoin="round"/>
<path d="M168.401 101.867C168.401 104.301 166.431 106.273 163.999 106.273C161.568 106.273 159.598 104.301 159.598 101.867" stroke="white" stroke-width="1.5" stroke-miterlimit="10" stroke-linecap="round" stroke-linejoin="round"/>
<path d="M168.4 101.869V97.0234H177.2V101.869" stroke="white" stroke-width="1.5" stroke-miterlimit="10" stroke-linecap="round" stroke-linejoin="round"/>
<path d="M177.2 101.867C177.2 104.301 175.23 106.273 172.798 106.273C170.367 106.273 168.396 104.301 168.396 101.867" stroke="white" stroke-width="1.5" stroke-miterlimit="10" stroke-linecap="round" stroke-linejoin="round"/>
<path d="M177.198 101.869V97.0234H185.998V101.869" stroke="white" stroke-width="1.5" stroke-miterlimit="10" stroke-linecap="round" stroke-linejoin="round"/>
<path d="M185.997 101.867C185.997 104.301 184.026 106.273 181.595 106.273C179.164 106.273 177.193 104.301 177.193 101.867" stroke="white" stroke-width="1.5" stroke-miterlimit="10" stroke-linecap="round" stroke-linejoin="round"/>
<path d="M181.6 106.27V126.792H146.4V106.27" stroke="white" stroke-width="1.5" stroke-miterlimit="10" stroke-linecap="round" stroke-linejoin="round"/>
<path d="M162.503 109.793H152.911V126.793H162.503V109.793Z" stroke="white" stroke-width="1.5" stroke-miterlimit="10" stroke-linecap="round" stroke-linejoin="round"/>
<path d="M177.199 109.793H166.728V114.549H177.199V109.793Z" stroke="white" stroke-width="1.5" stroke-miterlimit="10" stroke-linecap="round" stroke-linejoin="round"/>
<path d="M138 138.904C167.5 141.404 221.1 141.704 199.5 122.904C184.147 109.541 197.861 103.471 214.5 101.137" stroke="white" stroke-width="1.5" stroke-linecap="round" stroke-linejoin="round" stroke-dasharray="2 4"/>
<g clip-path="url(#clip0)">
<path fill-rule="evenodd" clip-rule="evenodd" d="M137.968 139.898C145.2 134.002 153.067 124.305 151.798 114.478C150.91 107.271 144.946 101.898 137.968 101.898C130.736 101.898 124.772 107.533 124.138 115.002C123.25 124.698 130.863 134.133 137.968 139.898ZM137.968 111.464C140.759 111.464 143.043 113.823 143.043 116.705C143.043 119.588 140.759 121.947 137.968 121.947C135.176 121.947 132.893 119.588 132.893 116.705C132.893 113.823 135.176 111.464 137.968 111.464Z" fill="#E4002B"/>
</g>
<path d="M218 97.8984L211 104.898" stroke="white" stroke-width="1.5" stroke-linecap="round"/>
<path d="M211 97.8984L218 104.898" stroke="white" stroke-width="1.5" stroke-linecap="round"/>
<circle opacity="0.3" cx="285.5" cy="81.5" r="2.5" stroke="#F8F7F5" stroke-width="2"/>
<circle opacity="0.3" cx="99.5" cy="58.5" r="2.5" stroke="#F8F7F5" stroke-width="2"/>
<circle opacity="0.3" cx="42" cy="153" r="5" stroke="#F8F7F5" stroke-width="2"/>
<circle opacity="0.3" cx="288" cy="311" r="5" stroke="#F8F7F5" stroke-width="2"/>
<circle opacity="0.8" cx="78.5" cy="366.5" r="2.5" stroke="#F8F7F5" stroke-width="2"/>
<circle opacity="0.8" cx="233.5" cy="149.5" r="2.5" stroke="#F8F7F5" stroke-width="2"/>
<path opacity="0.4" d="M269.5 48C268.666 49.1667 267.1 52 267.5 54" stroke="#F8F7F5" stroke-width="2"/>
<defs>
<filter id="filter0_d" x="0" y="0" width="328" height="416" filterUnits="userSpaceOnUse" color-interpolation-filters="sRGB">
<feFlood flood-opacity="0" result="BackgroundImageFix"/>
<feColorMatrix in="SourceAlpha" type="matrix" values="0 0 0 0 0 0 0 0 0 0 0 0 0 0 0 0 0 0 127 0"/>
<feOffset dy="4"/>
<feGaussianBlur stdDeviation="4.5"/>
<feColorMatrix type="matrix" values="0 0 0 0 0 0 0 0 0 0 0 0 0 0 0 0 0 0 0.15 0"/>
<feBlend mode="normal" in2="BackgroundImageFix" result="effect1_dropShadow"/>
<feBlend mode="normal" in="SourceGraphic" in2="effect1_dropShadow" result="shape"/>
</filter>
<clipPath id="clip0">
<rect width="38" height="38" fill="white" transform="translate(119 101.898)"/>
</clipPath>
</defs>
</svg>
